<?xml version="1.0" encoding="UTF-8"?>
<svg version="1.1" xmlns="http://www.w3.org/2000/svg" width="500" height="500">
<path d="M0 0 C0.87497011 11.37461144 -4.55752002 21.77993303 -9 32 C-9.28359375 32.66273926 -9.5671875 33.32547852 -9.859375 34.00830078 C-14.08153555 43.86373592 -18.67837796 53.40360709 -23.7734375 62.8359375 C-25.9808765 66.93053547 -28.06412622 71.08013865 -30.125 75.25 C-37.37498017 89.86368552 -45.30677931 104.12679479 -53.87109375 118.01171875 C-55.13972195 120.09680904 -55.13972195 120.09680904 -56 123 C-56.66 123 -57.32 123 -58 123 C-58.09925781 123.5465625 -58.19851563 124.093125 -58.30078125 124.65625 C-61.87157816 136.62540164 -72.5940131 148.12630458 -79.72827148 158.14331055 C-81.04285918 159.9719893 -81.04285918 159.9719893 -82 162 C-82.66 162 -83.32 162 -84 162 C-84.2578125 162.56203125 -84.515625 163.1240625 -84.78125 163.703125 C-86.14169777 166.26704579 -87.72788962 168.45226365 -89.5 170.75 C-90.1084375 171.54921875 -90.716875 172.3484375 -91.34375 173.171875 C-91.8903125 173.77515625 -92.436875 174.3784375 -93 175 C-93.66 175 -94.32 175 -95 175 C-95 175.66 -95 176.32 -95 177 C-95.66 177 -96.32 177 -97 177 C-97 177.66 -97 178.32 -97 179 C-103.38495264 180.76267058 -109.67538032 181.68648274 -116.25 182.4375 C-122.77179954 183.19242063 -129.27197575 184.02616623 -135.76085472 185.02493191 C-146.43108932 186.66645406 -157.11722543 188.05933318 -167.8359375 189.33984375 C-169.57398058 189.54987429 -171.31198626 189.76021445 -173.04995728 189.97084045 C-177.57859337 190.51909159 -182.10758955 191.06429851 -186.63671875 191.60845947 C-194.70356303 192.57779697 -202.76997094 193.55072997 -210.8359375 194.52734375 C-212.13636427 194.68468428 -212.13636427 194.68468428 -213.46306229 194.8452034 C-228.34454175 196.64849043 -243.20398583 198.58601727 -258.05770874 200.60519409 C-276.80831186 203.12120907 -276.80831186 203.12120907 -286 203 C-286 202.34 -286 201.68 -286 201 C-285.17145508 200.65388672 -285.17145508 200.65388672 -284.32617188 200.30078125 C-269.49539987 194.08340707 -255.01720665 187.48188477 -240.96484375 179.640625 C-238.78120832 178.43228919 -236.59176774 177.26132256 -234.37890625 176.109375 C-224.0304702 170.63758818 -214.2854367 164.37343946 -204.5625 157.875 C-203.92283295 157.44797791 -203.28316589 157.02095581 -202.62411499 156.58099365 C-193.86302746 150.71984619 -185.09272284 144.82144162 -176.82250977 138.27685547 C-175 137 -175 137 -173 137 C-173 136.34 -173 135.68 -173 135 C-171.09480998 133.39018828 -169.19744338 131.90496732 -167.1875 130.4375 C-166.64029297 130.02564453 -166.09308594 129.61378906 -165.52929688 129.18945312 C-163.03006899 127.33850981 -160.97037715 125.99012572 -158 125 C-158 124.34 -158 123.68 -158 123 C-155.953125 121.125 -155.953125 121.125 -153.25 119 C-151.92742187 117.948125 -151.92742187 117.948125 -150.578125 116.875 C-148.42201936 115.30692317 -146.42251379 114.08673516 -144 113 C-144 112.34 -144 111.68 -144 111 C-142.23645665 109.44273602 -140.41336392 107.95239767 -138.5625 106.5 C-134.723054 103.71660656 -134.723054 103.71660656 -132 100 C-131.34 100 -130.68 100 -130 100 C-130 99.34 -130 98.68 -130 98 C-128.671875 96.6953125 -128.671875 96.6953125 -126.75 95.125 C-118.83611341 88.39187092 -111.46304383 80.92847867 -104.73046875 73.015625 C-101.83563903 69.64376916 -98.81707418 66.38276258 -95.8203125 63.1015625 C-93.96323333 61.13276579 -93.96323333 61.13276579 -93 59 C-92.34 59 -91.68 59 -91 59 C-90.62875 58.195625 -90.62875 58.195625 -90.25 57.375 C-88.69347463 54.4176018 -86.96564327 51.70275949 -85 49 C-84.34 49 -83.68 49 -83 49 C-82.34 47.35 -81.68 45.7 -81 44 C-80.34 44 -79.68 44 -79 44 C-78.773125 43.34 -78.54625 42.68 -78.3125 42 C-76.6121185 38.11341372 -74.60376916 34.36320183 -72 31 C-71.34 31 -70.68 31 -70 31 C-69.8453125 30.13375 -69.8453125 30.13375 -69.6875 29.25 C-68.8240417 26.42413648 -68.11241746 25.11241746 -66 23 C-63.14029933 22.15528842 -60.47897888 21.52616733 -57.5625 21 C-55.92614353 20.66999085 -54.29071623 20.33534099 -52.65625 19.99609375 C-51.85832031 19.83093262 -51.06039062 19.66577148 -50.23828125 19.49560547 C-43.50351508 18.00437779 -37.12461345 15.5796377 -30.87109375 12.703125 C-29.43817993 12.04582397 -29.43817993 12.04582397 -27.97631836 11.37524414 C-25.05655773 10.02613319 -22.13754881 8.67540915 -19.21875 7.32421875 C-17.3125 6.4453125 -15.40625 5.56640625 -13.5 4.6875 C-12.52546875 4.23310547 -11.5509375 3.77871094 -10.546875 3.31054688 C-9.61359375 2.88193359 -8.6803125 2.45332031 -7.71875 2.01171875 C-6.88279297 1.62459717 -6.04683594 1.23747559 -5.18554688 0.83862305 C-3 0 -3 0 0 0 Z " fill="#FFFFFF" transform="translate(398,172)"/>
<path d="M0 0 C0.65274902 0.3619043 1.30549805 0.72380859 1.97802734 1.09667969 C7.06970437 3.92994157 12.14942581 6.76628387 17 10 C17 10.66 17 11.32 17 12 C17.99 12 18.98 12 20 12 C20 12.66 20 13.32 20 14 C20.66 14.185625 21.32 14.37125 22 14.5625 C26.31339218 16.62933375 29.51456519 19.76537811 33 23 C32.37861544 26.52468981 30.97451007 28.70065323 28.83984375 31.546875 C27.8972168 32.81337891 27.8972168 32.81337891 26.93554688 34.10546875 C26.27619141 34.97816406 25.61683594 35.85085937 24.9375 36.75 C23.94266602 38.08224609 23.94266602 38.08224609 22.92773438 39.44140625 C21.29075512 41.63189647 19.6480412 43.81782735 18 46 C14.62627631 45.24748837 12.52115218 44.16139119 9.75 42.0625 C8.69039063 41.27552734 8.69039063 41.27552734 7.609375 40.47265625 C7.07828125 39.98667969 6.5471875 39.50070313 6 39 C6 38.34 6 37.68 6 37 C5.32324219 36.76925781 4.64648438 36.53851563 3.94921875 36.30078125 C0.24429227 34.66668785 -2.87026761 32.48951948 -6.1875 30.1875 C-15.97837891 23.54766769 -25.91525484 19.1262281 -37 15 C-37.67417969 14.72285156 -38.34835937 14.44570312 -39.04296875 14.16015625 C-72.40656549 0.53484632 -114.20784625 3.42536227 -147.01611328 17.140625 C-162.66036028 23.9173601 -177.73693317 32.16164133 -189.9609375 44.1640625 C-192 46 -192 46 -194 46 C-194 46.66 -194 47.32 -194 48 C-194.66 48 -195.32 48 -196 48 C-196 48.66 -196 49.32 -196 50 C-196.66 50 -197.32 50 -198 50 C-198 50.66 -198 51.32 -198 52 C-198.66 52 -199.32 52 -200 52 C-200.2578125 52.57234375 -200.515625 53.1446875 -200.78125 53.734375 C-202.11448959 56.21283322 -203.67375354 58.10939964 -205.5 60.25 C-211.83508833 68.02382634 -217.74629309 76.88491376 -222 86 C-228.75 86.125 -228.75 86.125 -231 85 C-232.70363822 84.77377919 -234.41328701 84.59111527 -236.125 84.4375 C-237.49011719 84.31181641 -237.49011719 84.31181641 -238.8828125 84.18359375 C-239.58148438 84.12300781 -240.28015625 84.06242187 -241 84 C-240.54641092 90.31481053 -238.99246579 94.77225302 -236 100.3125 C-230.80910154 110.19517208 -230.80910154 110.19517208 -231.48828125 113.05859375 C-231.76027344 113.84363281 -232.03226563 114.62867188 -232.3125 115.4375 C-235.99253233 127.00517686 -236.40729611 138.47523604 -236.375 150.5 C-236.37368576 151.69520264 -236.37368576 151.69520264 -236.37234497 152.91455078 C-236.32734673 165.32846022 -235.64427689 177.05344442 -232 189 C-231.74798828 189.83901855 -231.49597656 190.67803711 -231.23632812 191.54248047 C-227.90980703 202.32974223 -223.86963662 212.3300665 -218 222 C-217.38769531 223.00933594 -216.77539062 224.01867187 -216.14453125 225.05859375 C-213.84027986 228.75817007 -211.5617556 232.3159507 -208.79296875 235.6875 C-207 238 -207 238 -207 240 C-206.34 240 -205.68 240 -205 240 C-200 245.47619048 -200 245.47619048 -200 248 C-199.34 248 -198.68 248 -198 248 C-196.5625 249.49609375 -196.5625 249.49609375 -195 251.4375 C-192.85474956 254.15188238 -192.85474956 254.15188238 -190 256 C-190.29711914 257.86132812 -190.29711914 257.86132812 -191 260 C-193.46702501 261.68624573 -195.81272011 263.10747087 -198.4375 264.5 C-199.16163086 264.89292236 -199.88576172 265.28584473 -200.63183594 265.69067383 C-212.92447933 272.26545848 -212.92447933 272.26545848 -217 273 C-220.42205329 271.72302056 -222.60313587 269.73927329 -225 267 C-225 266.34 -225 265.68 -225 265 C-225.66 265 -226.32 265 -227 265 C-230 261.53846154 -230 261.53846154 -230 259 C-230.66 259 -231.32 259 -232 259 C-233.18579102 257.69335938 -233.18579102 257.69335938 -234.50390625 255.84375 C-234.99286377 255.15917725 -235.48182129 254.47460449 -235.9855957 253.76928711 C-236.50597412 253.02042236 -237.02635254 252.27155762 -237.5625 251.5 C-238.0989917 250.73115479 -238.6354834 249.96230957 -239.18823242 249.17016602 C-255.52725746 225.40718618 -265.47235676 199.64472181 -269 171 C-269.09498779 170.27401611 -269.18997559 169.54803223 -269.2878418 168.80004883 C-274.26433191 128.39979621 -261.78118996 90.00630793 -240.78515625 55.9140625 C-239.06003964 53.1916456 -239.06003964 53.1916456 -238 51 C-237.34 51 -236.68 51 -236 51 C-235.34 49.35 -234.68 47.7 -234 46 C-233.34 46 -232.68 46 -232 46 C-231.773125 45.29875 -231.54625 44.5975 -231.3125 43.875 C-229.66158712 40.25871465 -227.7091165 37.91230024 -225 35 C-224.34 35 -223.68 35 -223 35 C-223 34.34 -223 33.68 -223 33 C-222.34 33 -221.68 33 -221 33 C-221 32.34 -221 31.68 -221 31 C-220.34 31 -219.68 31 -219 31 C-219 30.34 -219 29.68 -219 29 C-218.34 29 -217.68 29 -217 29 C-217 28.34 -217 27.68 -217 27 C-216.34 27 -215.68 27 -215 27 C-215 26.34 -215 25.68 -215 25 C-157.24822067 -26.2215428 -67.85827089 -37.98617454 0 0 Z " fill="#FFFFFF" transform="translate(340,92)"/>
<path d="M0 0 C4.31697343 1.43899114 5.52638836 4.67274246 7.6875 8.4375 C8.12594238 9.19305176 8.56438477 9.94860352 9.01611328 10.72705078 C13.64725751 18.87645464 17.44388003 27.33659363 21 36 C21.61488281 37.47533203 21.61488281 37.47533203 22.2421875 38.98046875 C37.75117854 78.71474424 33.457528 127.08257671 16.64208984 165.60986328 C10.60756884 178.90427888 2.66634958 193.00119622 -7 204 C-7.66 204 -8.32 204 -9 204 C-9 204.66 -9 205.32 -9 206 C-9.66 206 -10.32 206 -11 206 C-11.309375 206.61875 -11.61875 207.2375 -11.9375 207.875 C-12.625 209.25 -13.3125 210.625 -14 212 C-14.66 212 -15.32 212 -16 212 C-16.2475 212.61875 -16.495 213.2375 -16.75 213.875 C-18.20628639 216.35068687 -19.37812506 216.95125002 -22 218 C-22 218.66 -22 219.32 -22 220 C-22.66 220 -23.32 220 -24 220 C-24 220.66 -24 221.32 -24 222 C-24.66 222 -25.32 222 -26 222 C-26 222.66 -26 223.32 -26 224 C-31.16217379 228.85920197 -37.1517628 232.91302248 -42.9375 237 C-43.49268311 237.39775635 -44.04786621 237.7955127 -44.61987305 238.20532227 C-48.64581123 241 -48.64581123 241 -52 241 C-52 241.66 -52 242.32 -52 243 C-82.14451969 260.10905171 -113.24027941 269.45344313 -147.9375 269.375 C-148.84318726 269.37445618 -149.74887451 269.37391235 -150.68200684 269.37335205 C-164.80660947 269.3343958 -178.2635229 268.52606892 -192 265 C-192.88977539 264.78037598 -193.77955078 264.56075195 -194.69628906 264.33447266 C-217.02154452 258.73134904 -236.1634904 249.3623987 -255.5 237.0625 C-256.24894531 236.58973633 -256.99789062 236.11697266 -257.76953125 235.62988281 C-259.5502598 234.47542744 -261.28103084 233.24455069 -263 232 C-263 231.34 -263 230.68 -263 230 C-263.66 230 -264.32 230 -265 230 C-265 229.34 -265 228.68 -265 228 C-257.08141194 225.99650182 -249.18530552 225.19264523 -241.0625 224.4375 C-239.75603516 224.31181641 -238.44957031 224.18613281 -237.10351562 224.05664062 C-234.56138085 223.8122784 -232.01874411 223.57307041 -229.47558594 223.33959961 C-227.30906856 223.12790913 -225.14469194 222.89090458 -222.98535156 222.61547852 C-222.10975586 222.50518311 -221.23416016 222.3948877 -220.33203125 222.28125 C-219.59057861 222.17748047 -218.84912598 222.07371094 -218.08520508 221.96679688 C-214.61047939 222.02212561 -212.11116086 223.78721333 -209.1484375 225.46484375 C-190.73837755 234.44146107 -169.01275088 237.17703897 -148.8125 237.1875 C-147.58724609 237.19974609 -146.36199219 237.21199219 -145.09960938 237.22460938 C-133.28389501 237.24329527 -121.89298754 235.83069479 -110.5 232.6875 C-109.69594727 232.46876221 -108.89189453 232.25002441 -108.06347656 232.0246582 C-86.03590463 225.91294928 -65.39842712 215.63365306 -48.85546875 199.6171875 C-47 198 -47 198 -45 198 C-45 197.34 -45 196.68 -45 196 C-44.34 196 -43.68 196 -43 196 C-43 195.34 -43 194.68 -43 194 C-42.34 194 -41.68 194 -41 194 C-40.7421875 193.41863281 -40.484375 192.83726562 -40.21875 192.23828125 C-38.89785509 189.81240694 -37.4133848 188.17538134 -35.5 186.1875 C-15.38534302 163.88646726 -3.26131433 133.20821108 -2.3125 103.375 C-2.27487549 102.23272949 -2.23725098 101.09045898 -2.19848633 99.91357422 C-1.71917947 83.88812545 -1.71917947 83.88812545 -4.171875 68.1171875 C-6.89742253 57.2400311 -7.22498041 50.61912855 -2.7421875 40.27734375 C-0.73017231 35.62742591 0.34739819 30.88503153 1.375 25.9375 C1.62540039 24.74809814 1.62540039 24.74809814 1.88085938 23.53466797 C2.26299556 21.69163989 2.63294116 19.84609003 3 18 C0.69 18 -1.62 18 -4 18 C-2.83445193 11.9490696 -1.54656904 5.96533774 0 0 Z " fill="#FFFFFF" transform="translate(401,149)"/>
<path d="M0 0 C5.22190176 0.76892081 10.26733222 2.01065091 15.375 3.3125 C16.70337891 3.64689087 16.70337891 3.64689087 18.05859375 3.98803711 C22.09710906 5.00529263 26.13284318 6.03233634 30.1640625 7.078125 C75.13958598 18.61970536 119.59404785 18.2053383 165.625 14.5 C166.44425964 14.43428802 167.26351929 14.36857605 168.10760498 14.3008728 C170.46007283 14.1104445 172.81212496 13.91561079 175.1640625 13.71875 C176.21729706 13.63280327 176.21729706 13.63280327 177.29180908 13.54512024 C180.2254959 13.29414781 183.11190129 12.98102063 186.015625 12.48852539 C189.54069845 11.91149071 193.02042611 11.67877443 196.5859375 11.46484375 C197.28772125 11.42186661 197.989505 11.37888947 198.71255493 11.33460999 C200.93320322 11.19929141 203.154083 11.06832642 205.375 10.9375 C206.88934038 10.84599173 208.40366353 10.75419771 209.91796875 10.66210938 C213.61178562 10.43810168 217.30582286 10.21799516 221 10 C220.16674012 13.7777143 218.64655186 16.4744424 216.5625 19.75 C215.94503906 20.73484375 215.32757813 21.7196875 214.69140625 22.734375 C213.85416016 23.85585937 213.85416016 23.85585937 213 25 C212.34 25 211.68 25 211 25 C210.7525 25.53625 210.505 26.0725 210.25 26.625 C208.69347463 29.5823982 206.96564327 32.29724051 205 35 C204.34 35 203.68 35 203 35 C202.71576172 35.58628174 202.43152344 36.17256348 202.13867188 36.77661133 C197.92554626 45.00322689 191.68395488 52.43133172 182.86132812 55.82189941 C170.69475597 59.72905578 157.89822316 61.64621229 145.30511475 63.63012695 C142.29604385 64.11295507 139.29952252 64.66025356 136.30078125 65.203125 C110.06430421 69.56338734 81.11055394 68.46292338 55 64 C54.15244141 63.87141602 53.30488281 63.74283203 52.43164062 63.61035156 C38.32960822 61.42670352 38.32960822 61.42670352 34 56 C32.9830297 54.34363374 31.98471491 52.67574292 31 51 C29.36959839 48.83938649 27.7274443 46.6957903 26.0625 44.5625 C22 39.25208681 22 39.25208681 22 37 C21.34 37 20.68 37 20 37 C18.38024891 34.69744269 16.89481599 32.403424 15.4375 30 C14.78019897 28.92915161 14.78019897 28.92915161 14.10961914 27.83666992 C10.98164072 22.70350511 7.92502623 17.52860225 4.9375 12.3125 C4.55585693 11.65443359 4.17421387 10.99636719 3.78100586 10.31835938 C1.85750368 6.90388974 0.48548558 3.90629168 0 0 Z " fill="#FFFFFF" transform="translate(103,180)"/>
<path d="M0 0 C-1.16596759 8.05072862 -10.55446166 14.7204775 -16.37109375 19.8203125 C-18 21 -18 21 -20 21 C-20 21.66 -20 22.32 -20 23 C-20.66 23 -21.32 23 -22 23 C-22 23.66 -22 24.32 -22 25 C-23.80859375 26.5234375 -23.80859375 26.5234375 -26.4375 28.375 C-27.43910156 29.08398438 -28.44070312 29.79296875 -29.47265625 30.5234375 C-30.03355957 30.9162793 -30.59446289 31.30912109 -31.17236328 31.71386719 C-33.14379255 33.10118877 -35.10161606 34.50643607 -37.05859375 35.9140625 C-45.51084201 41.97194173 -54.0270629 47.73276939 -63 53 C-64.01320312 53.62390625 -65.02640625 54.2478125 -66.0703125 54.890625 C-67.03710938 55.46296875 -68.00390625 56.0353125 -69 56.625 C-69.845625 57.13289063 -70.69125 57.64078125 -71.5625 58.1640625 C-74 59 -74 59 -76.8125 58.1484375 C-77.534375 57.76945312 -78.25625 57.39046875 -79 57 C-79 56.34 -79 55.68 -79 55 C-80.65 54.34 -82.3 53.68 -84 53 C-84 52.34 -84 51.68 -84 51 C-84.53625 50.7525 -85.0725 50.505 -85.625 50.25 C-88.5823982 48.69347463 -91.29724051 46.96564327 -94 45 C-94 44.34 -94 43.68 -94 43 C-94.5887793 42.73574219 -95.17755859 42.47148437 -95.78417969 42.19921875 C-98.08072584 40.95631056 -99.60833166 39.64993519 -101.453125 37.8125 C-102.38125 36.88824219 -102.38125 36.88824219 -103.328125 35.9453125 C-103.96234375 35.30335938 -104.5965625 34.66140625 -105.25 34 C-105.8996875 33.35804688 -106.549375 32.71609375 -107.21875 32.0546875 C-107.83234375 31.43851562 -108.4459375 30.82234375 -109.078125 30.1875 C-109.63918945 29.62417969 -110.20025391 29.06085938 -110.77832031 28.48046875 C-112 27 -112 27 -112 25 C-112.66 25 -113.32 25 -114 25 C-114 24.34 -114 23.68 -114 23 C-114.66 23 -115.32 23 -116 23 C-116 22.34 -116 21.68 -116 21 C-116.66 21 -117.32 21 -118 21 C-118.66 19.35 -119.32 17.7 -120 16 C-120.66 16 -121.32 16 -122 16 C-123.2890625 14.57421875 -123.2890625 14.57421875 -124.625 12.6875 C-125.07101563 12.07261719 -125.51703125 11.45773438 -125.9765625 10.82421875 C-127 9 -127 9 -127 6 C-125.07800781 6.19916016 -125.07800781 6.19916016 -123.1171875 6.40234375 C-121.36980299 6.58084002 -119.62240649 6.75921902 -117.875 6.9375 C-117.03839844 7.02451172 -116.20179688 7.11152344 -115.33984375 7.20117188 C-102.66722401 8.48749042 -90.05332522 9.23554078 -77.3125 9.25 C-76.24925003 9.25200912 -76.24925003 9.25200912 -75.16452026 9.25405884 C-60.96858581 9.24831222 -47.05340571 8.03887262 -33 6 C-32.10667969 5.87189941 -31.21335937 5.74379883 -30.29296875 5.61181641 C-21.84133665 4.37036123 -13.53264117 2.81274969 -5.28515625 0.55078125 C-3 0 -3 0 0 0 Z " fill="#FFFFFF" transform="translate(278,244)"/>
<path d="M0 0 C0.99 0.33 1.98 0.66 3 1 C2.61423591 50.01199232 2.61423591 50.01199232 -2 66 C-2.18989502 66.71752441 -2.37979004 67.43504883 -2.57543945 68.17431641 C-3.76656924 72.04115966 -4.60286982 73.68877961 -7.87109375 76.25 C-9.04800781 76.8275 -10.22492188 77.405 -11.4375 78 C-12.08203125 78.32121826 -12.7265625 78.64243652 -13.390625 78.97338867 C-21.32313169 82.82479994 -29.57917648 85.9744341 -37.80419922 89.13598633 C-39.83959946 89.93688487 -41.84674008 90.78210059 -43.8515625 91.65625 C-50.33241508 94.42227145 -56.92415434 95.9044314 -64 95 C-66.265625 93.984375 -66.265625 93.984375 -68 93 C-66.62322312 89.8628666 -65.07494493 87.93373318 -62.5625 85.625 C-57.22849404 80.43620292 -52.83666476 74.57813653 -48.31201172 68.69238281 C-46.43101974 66.26606417 -44.49648564 63.88416851 -42.5625 61.5 C-40.43426217 58.86255189 -38.4412612 56.23577772 -36.625 53.375 C-36.08875 52.59125 -35.5525 51.8075 -35 51 C-34.34 51 -33.68 51 -33 51 C-32.731875 50.27425781 -32.46375 49.54851562 -32.1875 48.80078125 C-31.01329619 46.03135976 -29.6605676 43.69080566 -28 41.1875 C-27.484375 40.39730469 -26.96875 39.60710937 -26.4375 38.79296875 C-25.963125 38.20128906 -25.48875 37.60960937 -25 37 C-24.34 37 -23.68 37 -23 37 C-22.67322266 36.00806641 -22.67322266 36.00806641 -22.33984375 34.99609375 C-20.5497443 30.99315999 -18.09959108 27.62501251 -15.5625 24.0625 C-12.32342784 19.50396349 -9.35475051 15.10062908 -7 10 C-6.34 10 -5.68 10 -5 10 C-4.9175 9.46375 -4.835 8.9275 -4.75 8.375 C-3.73623902 5.1647569 -1.92839451 2.73707608 0 0 Z " fill="#FFFFFF" transform="translate(398,92)"/>
</svg>
